<svg width="166" height="106" viewBox="0 0 166 106" fill="none" xmlns="http://www.w3.org/2000/svg">
<path d="M9.76111 105.007C6.65735 105.007 4.25081 104.095 2.54898 102.271C0.847163 100.447 0 98.237 0 95.6492C0 93.0615 0.862157 90.8148 2.58647 89.0575C4.31078 87.2928 6.76231 86.4178 9.94854 86.4178C13.1348 86.4178 15.5938 87.3595 17.2356 89.2355C18.87 91.1188 19.6947 93.2691 19.6947 95.6937C19.6947 98.3111 18.8475 100.513 17.1607 102.315C15.4738 104.109 13.0073 105.014 9.76861 105.014L9.76111 105.007Z" fill="#231F20"/>
<path d="M40.4835 86.4178V97.824C40.4835 99.6686 40.2186 101.039 39.6813 101.935C39.144 102.831 38.1603 103.569 36.7225 104.148C35.2847 104.728 33.4458 105.014 31.2059 105.014C28.966 105.014 27.1801 104.758 25.8558 104.239C24.5315 103.719 23.5402 102.981 22.8743 102.025C22.2159 101.069 21.8829 99.6686 21.8829 97.824V86.4178H27.8006V97.824C27.8006 98.8103 27.9065 99.5331 28.1184 99.9999C28.3303 100.467 28.7465 100.836 29.3822 101.107C30.0103 101.378 30.7897 101.513 31.7129 101.513C32.7345 101.513 33.5669 101.378 34.2101 101.114C34.8534 100.851 35.2771 100.489 35.489 100.045C35.7009 99.6008 35.8068 98.863 35.8068 97.824V86.4178H40.4835Z" fill="#231F20"/>
<path d="M59.084 86.4178V90.0958H53.5454V105.014H48.2394V90.0958H42.6718V86.4178H59.084Z" fill="#231F20"/>
<path d="M70.0255 86.4255H76.9509C79.7756 86.4255 81.8776 86.7465 83.2641 87.3886C84.6507 88.0306 85.8897 89.0395 86.9813 90.423C88.0802 91.8064 88.626 93.5567 88.626 95.6739C88.626 98.3338 87.6672 100.558 85.7496 102.339C83.832 104.12 81.1917 105.014 77.8285 105.014H70.0255V86.4178V86.4255ZM75.2398 89.8421V101.513H77.4303C79.3626 101.513 80.8008 100.917 81.7448 99.7326C82.6888 98.5478 83.1535 97.1567 83.1535 95.5593C83.1535 94.4357 82.888 93.3886 82.3496 92.4332C81.8112 91.4777 81.1474 90.8051 80.3509 90.4153C79.5543 90.0332 78.5956 89.8344 77.4819 89.8344H75.2398V89.8421Z" fill="#231F20"/>
<path d="M70.0255 86.4255H76.9509C79.7756 86.4255 81.8776 86.7465 83.2641 87.3886C84.6507 88.0306 85.8897 89.0395 86.9813 90.423C88.0802 91.8064 88.626 93.5567 88.626 95.6739C88.626 98.3338 87.6672 100.558 85.7496 102.339C83.832 104.12 81.1917 105.014 77.8285 105.014H70.0255V86.4178V86.4255Z" fill="#231F20"/>
<path d="M102.602 86.4178L109.415 105.014H103.932L102.595 101.185H95.5564L94.191 105.014H89.7201L96.6953 86.4178H102.595H102.602ZM96.7802 97.7529H101.393L99.1076 91.2255L96.7802 97.7529Z" fill="#231F20"/>
<path d="M124.733 86.4178V90.0958H119.194V105.014H113.888V90.0958H108.321V86.4178H124.733Z" fill="#231F20"/>
<path d="M143.333 89.9644H132.389V93.7784H140.995V97.279H132.389V101.338H143.333V105.014H126.921V86.4178H143.333V89.9567V89.9644Z" fill="#231F20"/>
<path d="M146.616 86.4255H153.541C156.366 86.4255 158.468 86.7465 159.854 87.3886C161.241 88.0306 162.48 89.0395 163.572 90.423C164.671 91.8064 165.216 93.5567 165.216 95.6739C165.216 98.3338 164.258 100.558 162.34 102.339C160.422 104.12 157.782 105.014 154.419 105.014H146.616V86.4178V86.4255ZM151.83 89.8421V101.513H154.021C155.953 101.513 157.391 100.917 158.335 99.7326C159.279 98.5478 159.744 97.1567 159.744 95.5593C159.744 94.4357 159.478 93.3886 158.94 92.4332C158.402 91.4777 157.738 90.8051 156.941 90.4153C156.145 90.0332 155.186 89.8344 154.072 89.8344H151.83V89.8421Z" fill="#231F20"/>
<path d="M13.659 94.9919C13.659 93.8929 12.7611 93 11.656 93C10.8425 93 10.1442 93.4808 9.82952 94.1753C9.51487 93.4884 8.8165 93 8.00301 93C6.8979 93 6 93.8929 6 94.9919C6 95.2209 6.03837 95.4498 6.11512 95.6559C6.19953 95.8925 6.32232 96.1062 6.48349 96.2893C6.55256 96.3656 6.6293 96.442 6.70604 96.5106L9.76045 99.5329C9.76045 99.5329 9.80649 99.5634 9.82952 99.5634C9.85254 99.5634 9.87556 99.5558 9.89859 99.5329L13.0681 96.4038C13.2753 96.1977 13.4365 95.9535 13.5362 95.6711C13.613 95.4575 13.6514 95.2361 13.6514 94.9919" fill="#FBE4E3"/>
<path d="M82.659 94.9919C82.659 93.8929 81.7611 93 80.656 93C79.8425 93 79.1442 93.4808 78.8295 94.1753C78.5149 93.4884 77.8165 93 77.003 93C75.8979 93 75 93.8929 75 94.9919C75 95.2209 75.0384 95.4498 75.1151 95.6559C75.1995 95.8925 75.3223 96.1062 75.4835 96.2893C75.5526 96.3656 75.6293 96.442 75.706 96.5106L78.7604 99.5329C78.7604 99.5329 78.8065 99.5634 78.8295 99.5634C78.8525 99.5634 78.8756 99.5558 78.8986 99.5329L82.0681 96.4038C82.2753 96.1977 82.4365 95.9535 82.5362 95.6711C82.613 95.4575 82.6514 95.2361 82.6514 94.9919" fill="#FBE4E3"/>
<path d="M66.743 20.784H87.5126C95.9848 20.784 102.29 21.7068 106.444 23.5523C110.598 25.3977 114.319 28.3148 117.606 32.3109C120.901 36.3069 122.545 41.3523 122.545 47.4468C122.545 55.119 119.676 61.5261 113.923 66.6682C108.178 71.8102 100.251 74.385 90.1574 74.385H66.743V20.784Z" fill="#FFD5D1"/>
<path d="M64.666 0C64.666 0 38.174 0.632689 35.2354 28.8208C35.2354 28.8208 31.5473 50.9946 54.188 57.9765H94.0967V21.0871C94.0967 21.0871 88.8428 0.349839 64.666 0ZM77.3258 28.8133C77.0364 29.6172 76.5763 30.3318 75.9901 30.9273L66.9145 39.9784C66.8626 40.0305 66.7884 40.0603 66.7216 40.0603C66.6548 40.0603 66.5806 40.0305 66.5286 39.9784L57.7722 31.2548C57.5422 31.0613 57.327 30.8454 57.134 30.6146C56.6739 30.0787 56.3103 29.4535 56.0654 28.7761C55.8577 28.1807 55.7389 27.5331 55.7389 26.8632C55.7389 23.6923 58.3139 21.1094 61.4751 21.1094C63.7978 21.1094 65.8014 22.5014 66.6993 24.4962C67.6046 22.5014 69.6083 21.1094 71.9235 21.1094C75.0848 21.1094 77.6597 23.6923 77.6597 26.8632C77.6597 27.548 77.541 28.203 77.3184 28.8133H77.3258Z" fill="black"/>
<path d="M60.3294 19.6259C60.3426 18.7273 60.5193 17.8411 60.8496 17.0178C61.1798 16.1945 61.6571 15.4502 62.2542 14.8274C62.8513 14.2047 63.5565 13.7157 64.3296 13.3883C65.1026 13.0609 65.9283 12.9016 66.7596 12.9194C67.5908 12.9372 68.4114 13.1319 69.1743 13.4922C69.9373 13.8525 70.6277 14.3715 71.2062 15.0194C71.7847 15.6674 72.24 16.4317 72.5459 17.2687C72.8519 18.1056 73.0026 18.9989 72.9895 19.8974L71.7009 19.8698C71.7114 19.1541 71.5913 18.4427 71.3477 17.7761C71.104 17.1096 70.7414 16.5008 70.2807 15.9848C69.8199 15.4687 69.2701 15.0554 68.6624 14.7684C68.0547 14.4814 67.4012 14.3264 66.7392 14.3122C66.0771 14.298 65.4195 14.4249 64.8038 14.6857C64.1882 14.9464 63.6265 15.3359 63.151 15.8319C62.6754 16.3278 62.2953 16.9206 62.0323 17.5763C61.7692 18.232 61.6285 18.9379 61.618 19.6535L60.3294 19.6259Z" fill="#FBE5E3"/>
</svg>
